<?xml version="1.0" encoding="utf-8"?>
<!-- Generator: Adobe Illustrator 22.0.0, SVG Export Plug-In . SVG Version: 6.00 Build 0)  -->
<svg version="1.1" id="Layer_1" xmlns="http://www.w3.org/2000/svg" xmlns:xlink="http://www.w3.org/1999/xlink" x="0px" y="0px"
	 viewBox="0 0 152.4 94.7" style="enable-background:new 0 0 152.4 94.7;" xml:space="preserve">
<style type="text/css">
	.st0{fill:none;}
	.st1{fill:#FF5F00;}
	.st2{fill:#EB001B;}
	.st3{fill:#F79E1B;}
</style>
<g>
	<rect class="st0" width="152.4" height="94.6"/>
	<g>
		<rect x="55.6" y="10.5" class="st1" width="41.2" height="74.1"/>
		<path class="st2" d="M58.2,47.5c0-14.5,6.6-28.1,18-37C55.8-5.6,26.1-2,10.1,18.4C-6,38.9-2.5,68.5,18,84.5
			C35.1,98,59.1,98,76.2,84.5C64.8,75.6,58.2,62,58.2,47.5z"/>
		<path class="st3" d="M152.4,47.5c0,26-21.1,47.1-47.1,47.1c-10.6,0-20.8-3.5-29.1-10.1c20.5-16.1,24-45.7,7.9-66.1
			c-2.3-2.9-5-5.6-7.9-7.9C96.7-5.6,126.3-2,142.3,18.4C148.9,26.7,152.4,37,152.4,47.5z"/>
		<path class="st3" d="M147.9,76.7v-1.5h0.6v-0.3H147v0.3h0.6v1.5H147.9z M150.9,76.7v-1.8h-0.5l-0.5,1.3l-0.5-1.3h-0.5v1.8h0.3
			v-1.4l0.5,1.2h0.3l0.5-1.2v1.4H150.9z"/>
	</g>
</g>
</svg>
